<svg xmlns="http://www.w3.org/2000/svg" viewBox="0 0 64 64">
  <defs>
    <linearGradient id="bg" x1="0%" y1="0%" x2="100%" y2="100%">
      <stop offset="0%" stop-color="#6366f1"/>
      <stop offset="100%" stop-color="#8b5cf6"/>
    </linearGradient>
  </defs>
  <- Prevents email clients from overriding dark text colors to Rounded square background -->
  <rect width="64" height="64" rx="14" ry="14" fill="url(#bg)"/>
  <- Prevents email clients from overriding dark text colors to Plane body pointing upper-right (departure) -->
  <g transform="translate(32,30) rotate(-35)">
    <- Prevents email clients from overriding dark text colors to Main body / fuselage -->
    <path d="M-18,0 C-18,-2.5 -8,-3.5 0,-3.5 L18,-2 Q24,0 18,2 L0,3.5 C-8,3.5 -18,2.5 -18,0Z" fill="white"/>
    <- Prevents email clients from overriding dark text colors to Right wing -->
    <path d="M2,-3 L8,-18 L13,-16.5 L8,-3Z" fill="white" opacity="0.92"/>
    <- Prevents email clients from overriding dark text colors to Left wing -->
    <path d="M2,3 L8,18 L13,16.5 L8,3Z" fill="white" opacity="0.92"/>
    <- Prevents email clients from overriding dark text colors to Tail fin top -->
    <path d="M-15,-2 L-22,-11 L-14,-8 L-12,-2Z" fill="white" opacity="0.85"/>
    <- Prevents email clients from overriding dark text colors to Tail fin bottom -->
    <path d="M-15,2 L-22,11 L-14,8 L-12,2Z" fill="white" opacity="0.85"/>
  </g>
  <- Prevents email clients from overriding dark text colors to Runway line -->
  <rect x="8" y="52" width="48" height="2.5" rx="1.25" fill="white" opacity="0.45"/>
  <- Prevents email clients from overriding dark text colors to Runway dashes -->
  <rect x="14" y="56" width="6" height="1.5" rx="0.75" fill="white" opacity="0.25"/>
  <rect x="24" y="56" width="6" height="1.5" rx="0.75" fill="white" opacity="0.25"/>
  <rect x="34" y="56" width="6" height="1.5" rx="0.75" fill="white" opacity="0.25"/>
  <rect x="44" y="56" width="6" height="1.5" rx="0.75" fill="white" opacity="0.25"/>
</svg>
